<mxfile host="app.diagrams.net" modified="2023-09-26T07:37:58.350Z" agent="Mozilla/5.0 (Windows NT 10.0; Win64; x64) AppleWebKit/537.36 (KHTML, like Gecko) Chrome/117.0.0.0 Safari/537.36" etag="YbB0aL3Wz3VGcL1B9h2G" version="21.8.1" type="device">
  <diagram name="Страница — 1" id="tVi-jge3zR_HktI96s0F">
    <mxGraphModel dx="646" dy="692" grid="1" gridSize="10" guides="1" tooltips="1" connect="1" arrows="1" fold="1" page="1" pageScale="1" pageWidth="1169" pageHeight="827" math="0" shadow="0">
      <root>
        <mxCell id="0" />
        <mxCell id="1" parent="0" />
        <mxCell id="cEWghYhspwBKZnSIQjmZ-3" value="System login" style="shape=umlLifeline;perimeter=lifelinePerimeter;whiteSpace=wrap;html=1;container=1;dropTarget=0;collapsible=0;recursiveResize=0;outlineConnect=0;portConstraint=eastwest;newEdgeStyle={&quot;curved&quot;:0,&quot;rounded&quot;:0};" vertex="1" parent="1">
          <mxGeometry x="240" y="120" width="100" height="400" as="geometry" />
        </mxCell>
        <mxCell id="cEWghYhspwBKZnSIQjmZ-4" value="" style="shape=umlLifeline;perimeter=lifelinePerimeter;whiteSpace=wrap;html=1;container=1;dropTarget=0;collapsible=0;recursiveResize=0;outlineConnect=0;portConstraint=eastwest;newEdgeStyle={&quot;curved&quot;:0,&quot;rounded&quot;:0};participant=umlActor;" vertex="1" parent="1">
          <mxGeometry x="120" y="120" width="20" height="400" as="geometry" />
        </mxCell>
        <mxCell id="cEWghYhspwBKZnSIQjmZ-5" value="User account database" style="shape=umlLifeline;perimeter=lifelinePerimeter;whiteSpace=wrap;html=1;container=1;dropTarget=0;collapsible=0;recursiveResize=0;outlineConnect=0;portConstraint=eastwest;newEdgeStyle={&quot;curved&quot;:0,&quot;rounded&quot;:0};" vertex="1" parent="1">
          <mxGeometry x="420" y="120" width="100" height="400" as="geometry" />
        </mxCell>
        <mxCell id="cEWghYhspwBKZnSIQjmZ-6" value="System dashboard" style="shape=umlLifeline;perimeter=lifelinePerimeter;whiteSpace=wrap;html=1;container=1;dropTarget=0;collapsible=0;recursiveResize=0;outlineConnect=0;portConstraint=eastwest;newEdgeStyle={&quot;curved&quot;:0,&quot;rounded&quot;:0};" vertex="1" parent="1">
          <mxGeometry x="620" y="120" width="100" height="400" as="geometry" />
        </mxCell>
        <mxCell id="cEWghYhspwBKZnSIQjmZ-7" value="System login page" style="html=1;verticalAlign=bottom;endArrow=open;endSize=8;curved=0;rounded=0;" edge="1" parent="1" target="cEWghYhspwBKZnSIQjmZ-4">
          <mxGeometry relative="1" as="geometry">
            <mxPoint x="289.5" y="200" as="sourcePoint" />
            <mxPoint x="159.5" y="200" as="targetPoint" />
          </mxGeometry>
        </mxCell>
        <mxCell id="cEWghYhspwBKZnSIQjmZ-9" value="Username and password input" style="html=1;verticalAlign=bottom;endArrow=block;curved=0;rounded=0;" edge="1" parent="1" target="cEWghYhspwBKZnSIQjmZ-3">
          <mxGeometry width="80" relative="1" as="geometry">
            <mxPoint x="130" y="240" as="sourcePoint" />
            <mxPoint x="250" y="240" as="targetPoint" />
          </mxGeometry>
        </mxCell>
        <mxCell id="cEWghYhspwBKZnSIQjmZ-10" value="Validating Username and password&amp;nbsp;" style="html=1;verticalAlign=bottom;endArrow=block;curved=0;rounded=0;" edge="1" parent="1" target="cEWghYhspwBKZnSIQjmZ-5">
          <mxGeometry width="80" relative="1" as="geometry">
            <mxPoint x="290" y="280" as="sourcePoint" />
            <mxPoint x="450" y="280" as="targetPoint" />
          </mxGeometry>
        </mxCell>
        <mxCell id="cEWghYhspwBKZnSIQjmZ-11" value="Alternative" style="shape=umlFrame;whiteSpace=wrap;html=1;pointerEvents=0;width=70;height=30;" vertex="1" parent="1">
          <mxGeometry x="50" y="300" width="630" height="200" as="geometry" />
        </mxCell>
        <mxCell id="cEWghYhspwBKZnSIQjmZ-12" value="If Valid" style="text;html=1;align=center;verticalAlign=middle;resizable=0;points=[];autosize=1;strokeColor=none;fillColor=none;" vertex="1" parent="1">
          <mxGeometry x="50" y="330" width="60" height="30" as="geometry" />
        </mxCell>
        <mxCell id="cEWghYhspwBKZnSIQjmZ-13" value="" style="endArrow=none;dashed=1;html=1;rounded=0;exitX=0.001;exitY=0.504;exitDx=0;exitDy=0;exitPerimeter=0;entryX=0.999;entryY=0.495;entryDx=0;entryDy=0;entryPerimeter=0;" edge="1" parent="1">
          <mxGeometry width="50" height="50" relative="1" as="geometry">
            <mxPoint x="51.26" y="381.79999999999995" as="sourcePoint" />
            <mxPoint x="679.9999999999999" y="380" as="targetPoint" />
          </mxGeometry>
        </mxCell>
        <mxCell id="cEWghYhspwBKZnSIQjmZ-14" value="Username and password are&lt;br&gt;valid, proceed" style="html=1;verticalAlign=bottom;endArrow=block;curved=0;rounded=0;" edge="1" parent="1" target="cEWghYhspwBKZnSIQjmZ-6">
          <mxGeometry width="80" relative="1" as="geometry">
            <mxPoint x="470" y="344.5" as="sourcePoint" />
            <mxPoint x="650" y="344.5" as="targetPoint" />
          </mxGeometry>
        </mxCell>
        <mxCell id="cEWghYhspwBKZnSIQjmZ-15" value="else" style="text;html=1;align=center;verticalAlign=middle;resizable=0;points=[];autosize=1;strokeColor=none;fillColor=none;" vertex="1" parent="1">
          <mxGeometry x="55" y="399" width="50" height="30" as="geometry" />
        </mxCell>
        <mxCell id="cEWghYhspwBKZnSIQjmZ-16" value="Username and password are&lt;br style=&quot;border-color: var(--border-color);&quot;&gt;invalid" style="html=1;verticalAlign=bottom;endArrow=open;dashed=1;endSize=8;curved=0;rounded=0;" edge="1" parent="1" target="cEWghYhspwBKZnSIQjmZ-3">
          <mxGeometry relative="1" as="geometry">
            <mxPoint x="470" y="429" as="sourcePoint" />
            <mxPoint x="300" y="429" as="targetPoint" />
          </mxGeometry>
        </mxCell>
        <mxCell id="cEWghYhspwBKZnSIQjmZ-17" value="Username and password are&lt;br style=&quot;border-color: var(--border-color);&quot;&gt;invalid" style="html=1;verticalAlign=bottom;endArrow=open;endSize=8;curved=0;rounded=0;" edge="1" parent="1" target="cEWghYhspwBKZnSIQjmZ-4">
          <mxGeometry relative="1" as="geometry">
            <mxPoint x="289.5" y="460" as="sourcePoint" />
            <mxPoint x="140" y="460" as="targetPoint" />
          </mxGeometry>
        </mxCell>
      </root>
    </mxGraphModel>
  </diagram>
</mxfile>
